<?xml version="1.0" standalone="no"?>
<!DOCTYPE svg PUBLIC "-//W3C//DTD SVG 20010904//EN"
 "http://www.w3.org/TR/2001/REC-SVG-20010904/DTD/svg10.dtd">
<svg version="1.0" xmlns="http://www.w3.org/2000/svg"
 width="257.000000pt" height="257.000000pt" viewBox="0 0 257.000000 257.000000"
 preserveAspectRatio="xMidYMid meet">
<metadata>
Created by potrace 1.14, written by Peter Selinger 2001-2017
</metadata>
<g transform="translate(0.000000,257.000000) scale(0.100000,-0.100000)"
fill="#000000" stroke="none">
<path d="M419 1642 c-65 -22 -133 -66 -176 -116 l-31 -34 36 -40 36 -40 43 48
c60 67 126 94 228 95 85 0 137 -18 198 -67 l28 -23 -49 -54 -49 -55 -38 29
c-30 24 -47 29 -91 29 -88 0 -143 -57 -145 -152 -2 -91 49 -156 132 -167 34
-4 129 30 129 46 0 21 28 6 70 -37 l45 -46 -35 -30 c-60 -52 -116 -72 -201
-72 -95 0 -168 33 -229 101 l-41 47 -29 -33 c-17 -18 -30 -36 -30 -40 0 -12
79 -83 120 -108 51 -31 143 -55 203 -52 155 7 282 90 350 229 29 60 32 73 32
165 0 92 -3 105 -32 165 -67 137 -190 219 -337 226 -60 3 -95 0 -137 -14z"/>
<path d="M1034 1600 c0 -22 3 -40 7 -40 3 0 6 18 6 40 0 22 -3 40 -7 40 -3 0
-6 -18 -6 -40z"/>
<path d="M1182 1595 c-93 -40 -88 -178 8 -206 21 -6 54 -9 73 -5 30 6 34 10
35 37 1 26 -2 29 -21 23 -79 -26 -138 46 -78 94 10 9 31 12 57 8 38 -5 41 -4
40 19 -1 13 -4 26 -7 29 -12 13 -78 13 -107 1z"/>
<path d="M1331 1591 c-6 -12 -8 -171 -2 -203 0 -3 35 -6 76 -5 75 1 75 1 75
28 0 25 -3 27 -36 25 -19 -1 -39 1 -45 4 -5 4 -9 40 -10 82 -1 72 -2 76 -25
81 -16 3 -27 -1 -33 -12z"/>
<path d="M1518 1602 c-16 -3 -18 -17 -18 -112 l0 -109 30 1 30 1 0 107 c0 111
-4 121 -42 112z"/>
<path d="M1610 1601 c-12 -5 -15 -27 -15 -111 l0 -105 30 0 c30 0 30 0 29 58
0 31 1 57 2 57 2 0 14 -16 28 -36 l24 -36 26 38 c14 21 26 34 27 29 1 -6 2
-28 4 -50 3 -64 4 -65 30 -65 14 0 26 3 26 8 6 35 3 208 -4 213 -19 13 -57 -5
-79 -37 -13 -19 -26 -34 -30 -34 -3 0 -16 15 -27 34 -22 35 -45 47 -71 37z"/>
<path d="M2291 1598 c-16 -6 -18 -18 -17 -110 l1 -103 70 0 c68 0 70 1 70 25
0 25 -2 26 -61 29 -11 1 -21 8 -21 16 0 14 16 20 46 15 8 -1 17 4 22 11 13 21
-2 39 -32 39 -19 0 -29 5 -29 15 0 11 11 15 39 15 32 0 39 3 36 18 -2 9 -4 22
-4 27 -1 11 -92 14 -120 3z"/>
<path d="M1921 1578 c-5 -13 -23 -58 -40 -101 -17 -43 -31 -82 -31 -87 0 -19
55 -5 65 18 8 17 18 22 47 22 31 0 39 -4 44 -24 5 -20 12 -24 37 -23 18 1 31
7 30 12 -1 6 -19 54 -40 108 -37 95 -39 97 -71 97 -24 0 -35 -6 -41 -22z m57
-98 c-2 -4 -10 -5 -19 -1 -13 5 -15 11 -7 31 l10 25 9 -24 c5 -13 8 -27 7 -31z"/>
<path d="M2054 1575 c0 -22 4 -25 33 -25 24 0 33 -5 34 -17 1 -10 2 -47 3 -83
1 -63 2 -65 29 -67 30 -2 29 -5 31 92 l1 70 34 5 c26 4 35 11 37 28 4 22 2 22
-99 22 l-103 0 0 -25z"/>
<path d="M1035 1540 c3 -5 8 -10 11 -10 2 0 4 5 4 10 0 6 -5 10 -11 10 -5 0
-7 -4 -4 -10z"/>
<path d="M1035 1465 c0 -19 3 -35 7 -35 4 0 7 16 6 35 -2 46 -14 46 -13 0z"/>
<path d="M1033 1405 c0 -8 4 -15 9 -15 4 0 8 7 8 15 0 8 -4 15 -8 15 -5 0 -9
-7 -9 -15z"/>
<path d="M1030 1370 c0 -5 5 -10 10 -10 6 0 10 5 10 10 0 6 -4 10 -10 10 -5 0
-10 -4 -10 -10z"/>
<path d="M1034 1315 c0 -19 3 -35 6 -35 4 0 7 16 7 35 0 19 -3 35 -7 35 -3 0
-6 -16 -6 -35z"/>
<path d="M1125 1311 c-2 -4 8 -48 23 -99 27 -90 27 -91 57 -89 27 2 31 7 39
45 5 23 12 42 16 42 3 0 10 -19 16 -42 8 -39 12 -43 39 -43 29 0 31 4 57 80
35 104 35 115 2 113 -22 -2 -27 -10 -42 -62 l-16 -59 -16 58 c-12 45 -21 59
-37 61 -17 3 -23 -5 -33 -44 -19 -71 -23 -72 -40 -12 -13 45 -20 55 -38 56
-12 1 -24 -2 -27 -5z"/>
<path d="M1458 1304 c-77 -41 -59 -164 28 -180 66 -12 126 30 126 89 0 83 -82
131 -154 91z m87 -54 c35 -39 -3 -91 -55 -75 -28 9 -37 51 -15 75 10 11 26 20
35 20 9 0 25 -9 35 -20z"/>
<path d="M1639 1288 c0 -15 0 -53 0 -83 0 -89 -1 -87 24 -83 19 3 23 11 27 53
l5 49 18 -27 c22 -33 30 -34 47 -2 20 38 29 30 27 -22 -2 -45 0 -48 26 -51
l27 -3 0 99 0 100 -26 0 c-18 0 -32 -10 -47 -34 -12 -19 -24 -34 -27 -34 -3 0
-16 16 -29 35 -30 45 -71 46 -72 3z"/>
<path d="M1870 1220 l0 -99 65 1 c61 1 65 2 65 24 0 19 -6 23 -37 26 -47 4
-50 22 -5 26 24 2 32 8 32 23 0 18 -6 22 -42 22 -10 0 -18 6 -18 13 0 9 12 14
36 14 31 0 35 3 32 23 -3 20 -9 22 -65 23 l-63 2 0 -98z"/>
<path d="M2028 1252 c-5 -109 0 -134 25 -130 19 3 22 10 25 56 l3 53 40 -53
c27 -37 47 -54 64 -55 l25 -2 0 99 0 100 -25 -2 c-23 -2 -25 -6 -25 -57 l0
-55 -40 54 c-26 35 -48 54 -64 56 -23 2 -25 0 -28 -64z"/>
<path d="M1035 1241 c0 -16 3 -27 6 -25 9 5 8 54 0 54 -4 0 -7 -13 -6 -29z"/>
<path d="M1034 1115 c2 -35 11 -39 12 -4 1 16 -2 29 -6 29 -4 0 -6 -11 -6 -25z"/>
<path d="M1450 1066 c0 -18 -6 -26 -22 -28 -12 -2 -29 -16 -38 -31 -14 -27
-14 -29 7 -46 14 -12 32 -17 48 -14 24 5 25 8 25 74 0 39 -4 69 -10 69 -5 0
-10 -11 -10 -24z m0 -70 c0 -30 -26 -42 -39 -17 -7 12 -6 22 1 29 20 20 38 13
38 -12z"/>
<path d="M1130 1015 c0 -37 4 -65 10 -65 6 0 10 19 11 43 l0 42 21 -27 21 -26
23 26 22 27 -2 -42 c-2 -31 1 -43 11 -43 9 0 13 17 13 65 0 74 -14 85 -44 33
l-19 -31 -26 32 c-14 17 -29 31 -33 31 -5 0 -8 -29 -8 -65z"/>
<path d="M1495 1071 c-6 -11 9 -23 19 -14 9 9 7 23 -3 23 -6 0 -12 -4 -16 -9z"/>
<path d="M1698 1015 c-21 -51 -24 -65 -12 -65 8 0 14 7 14 15 0 10 11 15 35
15 24 0 35 -5 35 -15 0 -8 7 -15 15 -15 13 0 13 4 -1 38 -9 20 -20 49 -26 65
-15 42 -31 33 -60 -38z m52 -2 c0 -7 -7 -13 -15 -13 -16 0 -19 9 -9 35 5 13 8
14 15 3 5 -7 9 -19 9 -25z"/>
<path d="M1975 1071 c-6 -11 9 -23 19 -14 9 9 7 23 -3 23 -6 0 -12 -4 -16 -9z"/>
<path d="M1902 1040 c-7 -12 -8 -20 -2 -20 5 0 10 -16 10 -35 0 -31 3 -35 25
-35 14 0 25 5 25 10 0 6 -6 9 -12 8 -19 -4 -22 41 -3 48 14 6 14 9 -4 25 -25
23 -23 23 -39 -1z"/>
<path d="M1039 1048 c-5 -18 -6 -38 -1 -34 7 8 12 36 6 36 -2 0 -4 -1 -5 -2z"/>
<path d="M1296 1024 c-22 -21 -20 -50 5 -67 21 -15 59 -12 59 5 0 6 -9 8 -20
5 -10 -3 -24 1 -31 9 -9 11 -6 13 21 10 38 -4 53 20 25 40 -24 18 -40 18 -59
-2z m44 -14 c0 -5 -7 -10 -15 -10 -8 0 -15 5 -15 10 0 6 7 10 15 10 8 0 15 -4
15 -10z"/>
<path d="M1498 1033 c-9 -20 -2 -77 10 -80 8 -3 12 8 12 36 0 36 -13 63 -22
44z"/>
<path d="M1545 1030 c-4 -6 5 -10 19 -10 32 0 34 -17 4 -22 -15 -2 -24 -11
-26 -25 -2 -13 0 -23 5 -24 72 -7 73 -6 67 31 -3 19 -7 41 -9 48 -5 14 -51 16
-60 2z m45 -58 c0 -5 -7 -9 -15 -9 -8 0 -15 4 -15 9 0 4 7 8 15 8 8 0 15 -4
15 -8z"/>
<path d="M1822 1028 c-13 -13 -16 -47 -4 -65 11 -18 62 -21 62 -3 0 5 -6 7
-12 5 -20 -7 -40 10 -36 31 2 11 13 20 26 22 12 2 22 8 22 13 0 13 -44 11 -58
-3z"/>
<path d="M1979 1038 c-1 -2 -2 -22 -3 -45 -1 -29 3 -43 11 -43 14 0 15 77 1
86 -4 3 -9 4 -9 2z"/>
<path d="M2036 1027 c-41 -30 12 -101 55 -74 11 7 19 23 19 37 0 46 -37 64
-74 37z m52 -31 c6 -27 -11 -38 -33 -22 -11 8 -16 19 -12 30 9 22 41 17 45 -8z"/>
<path d="M2134 1025 c-6 -23 2 -69 13 -72 9 -3 12 5 9 27 -2 21 1 33 11 37 20
8 31 -12 25 -43 -3 -16 0 -24 10 -24 15 0 19 55 5 77 -9 14 -68 13 -73 -2z"/>
<path d="M1035 921 c-3 -5 -2 -12 3 -15 5 -3 9 1 9 9 0 17 -3 19 -12 6z"/>
</g>
</svg>
